<svg xmlns="http://www.w3.org/2000/svg" viewBox="0 0 173.22 22.82"><defs><style>.cls-1{fill:#f9e500;}.cls-2{fill:#fff;}</style></defs><title>disfruta-</title><g id="Capa_2" data-name="Capa 2"><g id="Layer_1" data-name="Layer 1"><path class="cls-1" d="M3.49.27l0-.27h.11l.27.23.47,0h.64L6.09.42l.39.13.15,0,.66.27.53.23L8,1.22l.43.23.38.28L9,1.92l.11.15h.08l.3.39.08.19.23.11.08.11.32.57.3.43.08.42.19.39.08.49.16.11.11.54,0,.81L11,7l.11,0,.08.27,0,.24L11,7.72,11,8v.34l-.16.51L10.73,9l0,.3-.23.32-.19.42-.15.62-.35.72L9.27,12l-.66.69-.52.39-.35.47-.19.08-.08.15-.58.3,0,.11-.3.28-.3.19-.08,0v.08H5.9l-.68.53H5.06l-.2.35-.38,0-.23.19-.28,0V16L3.83,16l-.11,0-.61.19,0-.23L2.79,16v.19l-.15.08-.11.2H2.41l-.19.27-.2,0,0,.3-.15.19-.15,0-.38-.11-.23.23H1l-.11-.11-.19.08v0l-.08.08-.34.13L.23,17.5l-.11.11L0,17.41l0-.27.11-.08v-.19l.34-.34L.91,16,.68,14.62v-.35l0-.45,0-.34,0-.35,0-.73,0-1.15.08-1,0-.57,0-.47.11-.08L1,8.75l0-.27L1,8.32V7.68l.08-.35.13-.45,0-.19v-.3h.08l.08-.2.08-.53.08-.54.23-.57V4.14l.15-.57.16-.39L2,3V2.88l-.27-.27-.11-.39V2.07l0-.11,0-.34.15-.28,0-.08.15-.15L2.34,1l.3,0L2.87.85,3.14.73,3.26.47l.11-.2Zm2,3.54-.27,0H4.39v.59l-.19.71-.08.11.11.34L4.17,6.6l0,.27L4.13,7l0,.66-.08.92L4,8.71v.47l-.08.45-.13.54v.53l-.08.42-.15.58-.08.11,0,.33v.62l-.1.14.1.28-.14.27.08.32.09.28.54-.3.38-.35.23-.15.58-.42.57-.43L6.33,12l.42-.42.2-.28L7.21,11l.27-.23.23-.27.43-.69.19-.3.23-.69,0-.66,0-.49L8.51,6.64l-.27-.88L8,5.1l-.23-.27-.49-.54L6.71,4l-.53-.15Z"/><path class="cls-1" d="M13.78,10l.38-.16.24.08.13-.08h.09l.33.29.16.09.3.58,0,.4v.43l-.38.78-.58,1.92-.13,1.21,0,.42.24.08.76,0,1-.25-.18.34v.11l-.24.42-.18.18.05.13-.29.2h-.09l-.08.16-.34.13-.08.09-.76.45-.29.21-.54.08-.08,0-.13-.08L12.56,18l-.62-.45-.38-.45-.16-.42-.16-.92V14.6l.16-.67.49-1.25.76-1.29.66-.87ZM14.9,5.77l.16-.05.29.18.29.08.09.38.08,0-.08.09V7l-.13.54-.45.29-.47.09-.37-.09-.51-.66,0-.34V6.48l.08-.34.21,0V6l.2-.16h.13l.09-.09Z"/><path class="cls-1" d="M23.89,6.92l.29-.09h.58l.58.16.05,0v.09l.2.45v.34l-.13.24-.54.38h-.38l-.82.54-.88.67-.78.8-.09.33V11l.09.25,1.36,1.36.67.85.42.82v.09l0,.09.09.33v0l-.09.29v.13l-.2.34-.29.24-.45.3-1,.16-.29,0-.76.13h-.2l-.42.09-1.7.2-1.72.09-.08-.13h-.21l-.08-.09-.18,0h-.62l-.25.05L16,16.58l.09-.33.38-.25.58-.29,1.45-.42L20,15l2.2-.29.38-.13.05,0-.34-.47-.38-.38-.13-.11-.16-.21L21.1,13l-.25-.16v0l-.42-.38-.13-.16-.45-1-.09-1L20,9.53l.24-.42.8-.75.8-.54.8-.42Z"/><path class="cls-1" d="M36.39,2l.25-.25h.09l.08.16L37,2l0,.09.13.49.08.09L37.19,3,37,3.25l-.67.51-.45.66-.51.51-.33.62-.21.13-.2.45-.34.34v.2l-.24.25-.34.29.25.13-.09.13h-.2l-.13.09L33.34,8l-.42.58-.32.45-.09.13.3.08.71,0h2.32l1.55.09,1.29.25v.08l-.09.05V10l-.16.13-.45.16v.09l-.47.13-.37.08-.25.13,0,.13-.67.09-.4.16-.52.13-.49.13-.34.13-.54.29-.62.29-.42.25-.21-.05-.16.18-.25.11h-.08l-.09-.08-.45.13L31,12.7v.08l0,.18v.62l-.09.2,0,.38-.13.25-.13.71,0,.45v.34l-.08.13.08.13-.08.08-.08,1.69-.1,1,0,1.46v1.11l-.16.42-.29,0-.13.18,0,.08-.15.3h-.18l-.09,0-.16.29-.16.09-.25-.13v-.05l0,0-.11-.38,0,0,0-.16-.05-.38-.08-.13.08-.11L28.42,21v-.9l-.05-1.83.05-.69V15.86l0-.29.09-.25-.05-.16.05-.62v-.45l0-.38.08-.25-.08-.25,0-.24.13-.18-.09-.16.09-.2-.76-.09-1-.2L26.77,12l-.45-.13-.45-.51-.09-.29.09-.16.08,0v-.25l.16-.16.76-.29.71-.16h.13l1.58-.25.13-.09,0-.08.16-.51.16-.33.42-.92.83-1.34.33-.45.05-.2.08,0,.05-.13.33-.38.29-.58.16-.05L32.9,4l.54-.63L33.85,3l.75-.66L35.32,2l.29-.16.45-.13,0,0,.21.13Z"/><path class="cls-1" d="M40.53,8.23l.25-.13h.38l.45.45V9.1l0,.29.53-.29.76-.2,1,0,.51.08.87.47.34.29.29.54,0,.29-.29.29V11l-.34.33-.29,0-.13-.21-.29-.13-.95-.2h-.3l-.58.08-.67.34-.49.42-.63.87-.42.87-.49,1.83-.16,1.12-.05.38-.2.92-.09.16-.42.13-.25.2-.24.05L38.45,18l0-.16L38,17.27,38,17l0-.13-.09-.09-.08-.25.08-.25L38,16l0-.58.59-2.5.83-2.79.58-1.33Z"/><path class="cls-1" d="M48.48,7.9l.24-.14h0l.37.09.23.45v.61L49,10.38v.32l-.23,1-.32,1.93v1.28l.14.18.24-.2.28-.53L50.51,11l.28-.68.73-1.65.06-.21.13-.19L51.93,8h.27l.33-.09h.32l.56.14.18.28.05.37v.05l-.05.4,0,.28-.05.33-.14.62-.14.57-.18.52L53,12l-.11.39-.1.45L52.56,14l-.1,1L52.52,16l.18.9-.24.13-.21-.08,0,.16-.16,0h-.1L51.81,17l-.15-.37-.1-.42-.13-.45-.06-1-.45.92-.42.51-.91.87-.73.4-.56.1-.42-.14-.45-.23-.51-.61-.37-1-.09-.64.09-1.43.28-1.64.64-2L48,8.45Z"/><path class="cls-1" d="M60.93,3.66h.38l.16,0,.16.11.25.25.29.47.16.53.05.47-.34,1.29L62,7l.29.08.62,0,1,.13,1.29.09,1.34.16.49.21.09.08,0,.05L66.55,8l-.42.2h-.24l-.13.13-.71,0L65,8.45l-.11.05-.51,0-.45.13L62.81,9l-1,.38-.38.2-.53.21-.38.58,0,.38-.13.24-.18.38,0,.25,0,.16-.16.29-.21.76,0,.29-.21.62-.13.51,0,.38-.08.11,0,.09,0,.67,0,.08.47.25.42,0,.49-.25.13-.08h.13v.08l-.13.13,0,.29-.09.21-.13.33-.29.25-.37.45-.51.38L59,17.7l-.33.25-.87-.25-.75-.42-.51-.58L56.31,16l-.16-1.16.13-1.16.62-2.34.33-1-.49.09-1.25,0L54.89,10l-.25-.21-.09-.09-.13-.33-.11-.13L54.43,9l0-.16.25-.33.49-.18,1.14-.49,1.33-.29.71-.13.13,0,1-2,.76-1.2.42-.47Z"/><path class="cls-1" d="M71.67,8.28l.8-.19h.33l.4.47.05.16L73,9.31l.56-.49h.08l.34,0,.49.14.13.13.16.25.08.13,0,.63-.14.33.08.42-.61,1.53-.48,1.25v.11l-.3.54-.23,1-.05.37-.13,0V16l-.13.29,0,.25-.1.33,0,.25.13.13.06.63.16.25.08.2.25.21.29.09.2.05v.08l-.33.08-.13.13H73.4l-.29.2-.05.13h-.13l-.45-.05-.29-.14-.62-.63-.2-.45-.19-.47V17.4l-.11-.54-.15-1.09.1-1.21.14-.87h-.08v.09l-.59.69-.59.57-.27.42-.25.24-.09.09-.2.2-.47.37-.81.49-.87.32-.42-.05-.8-.27-.62-.3-.24-.38-.16-.34,0-.58.09-.66.19-.83.52-.95.13-.13.47-.58L67.29,11l1.86-1.3,1.55-.93Zm1.17,1.26-.2,0-.81.29-1.15.69-1.44,1.06-.92.9-.71.81-.43.95-.05.35.3.16,1.26-1,1.46-1.3,1.73-1.7Zm1.62-7,1-.11h.09l.13.09,0,.08-.11,0-.09.23,0,.08L75.4,3l-.23.11v.09l.09.1-.11.11.06.19-.11.09v.08l.33-.05v0L75,4,75,4.31l-.19.28-.16.19-.3.28L74,5.27l-1,.61-.93.42-.19,0h-.44l-.3-.09h-.21l-.14-.08V6l-.11-.1-.13-.37,0-.14-.05-.13.05-.11L70.74,5V5l.77-.68L71.86,4l1.07-.76.76-.47Z"/><path class="cls-2" d="M77.32,18.18l.59-4H76.07V12.05h2.19l.36-2.53H76.71V7.41h2.24l.57-3.94h2L81,7.41H83l.59-3.94h2L85,7.41h1.81v2.1H84.72l-.36,2.53h1.88v2.08H84l-.57,4h-2l.57-4H79.92l-.57,4Zm5-6.13.36-2.53H80.64l-.36,2.53Z"/><path class="cls-2" d="M89.17,3.14a30.78,30.78,0,0,1,4.66-.32c2.9,0,4.77.52,6.24,1.63a6.75,6.75,0,0,1,2.58,5.75,7.73,7.73,0,0,1-2.53,6.18c-1.61,1.33-4,2-7,2a29.86,29.86,0,0,1-3.91-.23Zm3.46,12.44a6.35,6.35,0,0,0,1.2.07C97,15.67,99,14,99,10.31c0-3.17-1.83-4.84-4.8-4.84a7.17,7.17,0,0,0-1.56.14Z"/><path class="cls-2" d="M115.35,14.63c0,1.45,0,2.62.09,3.55h-3l-.16-1.56h-.07a4,4,0,0,1-3.46,1.81c-2.24,0-3.89-1.4-3.89-4.82V7.12h3.46v6c0,1.61.52,2.58,1.72,2.58a1.85,1.85,0,0,0,1.72-1.2,1.92,1.92,0,0,0,.11-.75V7.12h3.46Z"/><path class="cls-2" d="M118.12,10.76c0-1.63,0-2.69-.09-3.64h3l.11,2h.09a3.25,3.25,0,0,1,3-2.29,3.54,3.54,0,0,1,.72,0v3.24a4.93,4.93,0,0,0-.93-.09,2.21,2.21,0,0,0-2.35,1.74,4.06,4.06,0,0,0-.07.77v5.61h-3.44Z"/><path class="cls-2" d="M132.76,18.18l-.2-1.11h-.07a4,4,0,0,1-3.17,1.36A3.39,3.39,0,0,1,125.74,15c0-2.87,2.58-4.25,6.49-4.23v-.16c0-.59-.32-1.43-2-1.43a6.22,6.22,0,0,0-3.05.84l-.63-2.22a9.13,9.13,0,0,1,4.3-1c3.69,0,4.86,2.17,4.86,4.77v3.85a17.14,17.14,0,0,0,.16,2.69ZM132.35,13c-1.81,0-3.21.41-3.21,1.74A1.24,1.24,0,0,0,130.49,16a1.88,1.88,0,0,0,1.79-1.27,2.47,2.47,0,0,0,.07-.59Z"/><path class="cls-2" d="M137.53,16.21,141,11.85c.63-.75,1.13-1.29,1.76-2v0h-4.86V7.12h9V9.18l-3.33,4.19a26.88,26.88,0,0,1-1.81,2v0h5.32v2.74h-9.62Z"/><path class="cls-2" d="M149,10.65c0-1.38,0-2.56-.09-3.53h3l.16,1.52h.07a4.05,4.05,0,0,1,3.42-1.76c2.26,0,4,1.49,4,4.75v6.56h-3.44V12.05c0-1.43-.5-2.4-1.74-2.4a1.84,1.84,0,0,0-1.74,1.29,2.36,2.36,0,0,0-.14.86v6.38H149Z"/><path class="cls-2" d="M173.22,12.53a5.55,5.55,0,0,1-5.84,5.91,5.42,5.42,0,0,1-5.72-5.7,5.52,5.52,0,0,1,5.91-5.86A5.38,5.38,0,0,1,173.22,12.53Zm-8,.11c0,1.9.79,3.33,2.26,3.33s2.19-1.33,2.19-3.33c0-1.65-.63-3.33-2.19-3.33S165.21,11,165.21,12.64Z"/></g></g></svg>